<svg xmlns="http://www.w3.org/2000/svg" viewBox="0 0 32 32" width="16" height="16"><path d="M31.93 14.66a16 16 0 0 0-31.86 0A1 1 0 0 0 0 15v2a1 1 0 0 0 1 1h1a1 1 0 0 0 1-1v-.5c0-1.08 1.37-2 3-2s3 .92 3 2v.5a1 1 0 0 0 1 1h1a1 1 0 0 0 1-1c0-1 1.06-1.91 2.5-2.3v12.05a1.25 1.25 0 0 1-2.5 0V26a1 1 0 0 0-1-1h-1a1 1 0 0 0-1 1v1a1 1 0 0 0 .05.25 4.23 4.23 0 0 0 8.44-.4V14.7C18.94 15.09 20 16 20 17a1 1 0 0 0 1 1h1a1 1 0 0 0 1-1v-.5c0-1.08 1.37-2 3-2s3 .92 3 2v.5a1 1 0 0 0 1 1h1a1 1 0 0 0 1-1v-2a1 1 0 0 0-.07-.34z"/></svg>